<svg width="201" height="201" viewBox="0 0 201 201" fill="none" xmlns="http://www.w3.org/2000/svg">
<g filter="url(#filter0_d_148_5)">
<circle cx="70.5" cy="70.5" r="30.5" fill="white"/>
</g>
<path fill-rule="evenodd" clip-rule="evenodd" d="M72.7574 75.8033L77.5303 71.0303C77.8232 70.7374 77.8232 70.2625 77.5303 69.9696L72.7574 65.1967C72.4645 64.9038 71.9896 64.9038 71.6967 65.1967C71.4038 65.4896 71.4038 65.9644 71.6967 66.2573L75.1893 69.75H64C63.5858 69.75 63.25 70.0858 63.25 70.5C63.25 70.9142 63.5858 71.25 64 71.25H75.1893L71.6967 74.7426C71.4038 75.0355 71.4038 75.5104 71.6967 75.8033C71.9896 76.0962 72.4645 76.0962 72.7574 75.8033Z" fill="#152137"/>
<defs>
<filter id="filter0_d_148_5" x="0" y="0" width="201" height="201" filterUnits="userSpaceOnUse" color-interpolation-filters="sRGB">
<feFlood flood-opacity="0" result="BackgroundImageFix"/>
<feColorMatrix in="SourceAlpha" type="matrix" values="0 0 0 0 0 0 0 0 0 0 0 0 0 0 0 0 0 0 127 0" result="hardAlpha"/>
<feOffset dx="30" dy="30"/>
<feGaussianBlur stdDeviation="35"/>
<feColorMatrix type="matrix" values="0 0 0 0 0.628618 0 0 0 0 0.625885 0 0 0 0 0.7625 0 0 0 0.25 0"/>
<feBlend mode="normal" in2="BackgroundImageFix" result="effect1_dropShadow_148_5"/>
<feBlend mode="normal" in="SourceGraphic" in2="effect1_dropShadow_148_5" result="shape"/>
</filter>
</defs>
</svg>
