<svg xmlns="http://www.w3.org/2000/svg" width="100" height="116" viewBox="0 0 100 116">
  <g id="DOTS" transform="translate(-137 -139)">
    <path id="Vector" d="M2,0A2,2,0,1,0,3.414.586,2,2,0,0,0,2,0Z" transform="translate(137 139)" fill="#244d4d"/>
    <path id="Vector-2" data-name="Vector" d="M2,0A2,2,0,1,0,3.414.586,2,2,0,0,0,2,0Z" transform="translate(137 155)" fill="#244d4d"/>
    <path id="Vector-3" data-name="Vector" d="M2,0A2,2,0,1,0,3.414.586,2,2,0,0,0,2,0Z" transform="translate(137 171)" fill="#244d4d"/>
    <path id="Vector-4" data-name="Vector" d="M2,0A2,2,0,1,0,3.414.586,2,2,0,0,0,2,0Z" transform="translate(137 187)" fill="#244d4d"/>
    <path id="Vector-5" data-name="Vector" d="M2,0A2,2,0,1,0,3.414.586,2,2,0,0,0,2,0Z" transform="translate(137 203)" fill="#244d4d"/>
    <path id="Vector-6" data-name="Vector" d="M2,0A2,2,0,1,0,3.414.586,2,2,0,0,0,2,0Z" transform="translate(137 219)" fill="#244d4d"/>
    <path id="Vector-7" data-name="Vector" d="M2,0A2,2,0,1,0,3.414.586,2,2,0,0,0,2,0Z" transform="translate(137 235)" fill="#244d4d"/>
    <path id="Vector-8" data-name="Vector" d="M2,0A2,2,0,1,0,3.414.586,2,2,0,0,0,2,0Z" transform="translate(137 251)" fill="#244d4d"/>
    <path id="Vector-9" data-name="Vector" d="M2,0A2,2,0,1,0,3.414.586,2,2,0,0,0,2,0Z" transform="translate(153 139)" fill="#244d4d"/>
    <path id="Vector-10" data-name="Vector" d="M2,0A2,2,0,1,0,3.414.586,2,2,0,0,0,2,0Z" transform="translate(153 155)" fill="#244d4d"/>
    <path id="Vector-11" data-name="Vector" d="M2,0A2,2,0,1,0,3.414.586,2,2,0,0,0,2,0Z" transform="translate(153 171)" fill="#244d4d"/>
    <path id="Vector-12" data-name="Vector" d="M2,0A2,2,0,1,0,3.414.586,2,2,0,0,0,2,0Z" transform="translate(153 187)" fill="#244d4d"/>
    <path id="Vector-13" data-name="Vector" d="M2,0A2,2,0,1,0,3.414.586,2,2,0,0,0,2,0Z" transform="translate(153 203)" fill="#244d4d"/>
    <path id="Vector-14" data-name="Vector" d="M2,0A2,2,0,1,0,3.414.586,2,2,0,0,0,2,0Z" transform="translate(153 219)" fill="#244d4d"/>
    <path id="Vector-15" data-name="Vector" d="M2,0A2,2,0,1,0,3.414.586,2,2,0,0,0,2,0Z" transform="translate(153 235)" fill="#244d4d"/>
    <path id="Vector-16" data-name="Vector" d="M2,0A2,2,0,1,0,3.414.586,2,2,0,0,0,2,0Z" transform="translate(153 251)" fill="#244d4d"/>
    <path id="Vector-17" data-name="Vector" d="M2,0A2,2,0,1,0,3.414.586,2,2,0,0,0,2,0Z" transform="translate(169 139)" fill="#244d4d"/>
    <path id="Vector-18" data-name="Vector" d="M2,0A2,2,0,1,0,3.414.586,2,2,0,0,0,2,0Z" transform="translate(169 155)" fill="#244d4d"/>
    <path id="Vector-19" data-name="Vector" d="M2,0A2,2,0,1,0,3.414.586,2,2,0,0,0,2,0Z" transform="translate(169 171)" fill="#244d4d"/>
    <path id="Vector-20" data-name="Vector" d="M2,0A2,2,0,1,0,3.414.586,2,2,0,0,0,2,0Z" transform="translate(169 187)" fill="#244d4d"/>
    <path id="Vector-21" data-name="Vector" d="M2,0A2,2,0,1,0,3.414.586,2,2,0,0,0,2,0Z" transform="translate(169 203)" fill="#244d4d"/>
    <path id="Vector-22" data-name="Vector" d="M2,0A2,2,0,1,0,3.414.586,2,2,0,0,0,2,0Z" transform="translate(169 219)" fill="#244d4d"/>
    <path id="Vector-23" data-name="Vector" d="M2,0A2,2,0,1,0,3.414.586,2,2,0,0,0,2,0Z" transform="translate(169 235)" fill="#244d4d"/>
    <path id="Vector-24" data-name="Vector" d="M2,0A2,2,0,1,0,3.414.586,2,2,0,0,0,2,0Z" transform="translate(169 251)" fill="#244d4d"/>
    <path id="Vector-25" data-name="Vector" d="M2,0A2,2,0,1,0,3.414.586,2,2,0,0,0,2,0Z" transform="translate(185 139)" fill="#244d4d"/>
    <path id="Vector-26" data-name="Vector" d="M2,0A2,2,0,1,0,3.414.586,2,2,0,0,0,2,0Z" transform="translate(185 155)" fill="#244d4d"/>
    <path id="Vector-27" data-name="Vector" d="M2,0A2,2,0,1,0,3.414.586,2,2,0,0,0,2,0Z" transform="translate(185 171)" fill="#244d4d"/>
    <path id="Vector-28" data-name="Vector" d="M2,0A2,2,0,1,0,3.414.586,2,2,0,0,0,2,0Z" transform="translate(185 187)" fill="#244d4d"/>
    <path id="Vector-29" data-name="Vector" d="M2,0A2,2,0,1,0,3.414.586,2,2,0,0,0,2,0Z" transform="translate(185 203)" fill="#244d4d"/>
    <path id="Vector-30" data-name="Vector" d="M2,0A2,2,0,1,0,3.414.586,2,2,0,0,0,2,0Z" transform="translate(185 219)" fill="#244d4d"/>
    <path id="Vector-31" data-name="Vector" d="M2,0A2,2,0,1,0,3.414.586,2,2,0,0,0,2,0Z" transform="translate(185 235)" fill="#244d4d"/>
    <path id="Vector-32" data-name="Vector" d="M2,0A2,2,0,1,0,3.414.586,2,2,0,0,0,2,0Z" transform="translate(185 251)" fill="#244d4d"/>
    <path id="Vector-33" data-name="Vector" d="M2,0A2,2,0,1,0,3.414.586,2,2,0,0,0,2,0Z" transform="translate(201 139)" fill="#244d4d"/>
    <path id="Vector-34" data-name="Vector" d="M2,0A2,2,0,1,0,3.414.586,2,2,0,0,0,2,0Z" transform="translate(201 155)" fill="#244d4d"/>
    <path id="Vector-35" data-name="Vector" d="M2,0A2,2,0,1,0,3.414.586,2,2,0,0,0,2,0Z" transform="translate(201 171)" fill="#244d4d"/>
    <path id="Vector-36" data-name="Vector" d="M2,0A2,2,0,1,0,3.414.586,2,2,0,0,0,2,0Z" transform="translate(201 187)" fill="#244d4d"/>
    <path id="Vector-37" data-name="Vector" d="M2,0A2,2,0,1,0,3.414.586,2,2,0,0,0,2,0Z" transform="translate(201 203)" fill="#244d4d"/>
    <path id="Vector-38" data-name="Vector" d="M2,0A2,2,0,1,0,3.414.586,2,2,0,0,0,2,0Z" transform="translate(201 219)" fill="#244d4d"/>
    <path id="Vector-39" data-name="Vector" d="M2,0A2,2,0,1,0,3.414.586,2,2,0,0,0,2,0Z" transform="translate(201 235)" fill="#244d4d"/>
    <path id="Vector-40" data-name="Vector" d="M2,0A2,2,0,1,0,3.414.586,2,2,0,0,0,2,0Z" transform="translate(201 251)" fill="#244d4d"/>
    <path id="Vector-41" data-name="Vector" d="M2,0A2,2,0,1,0,3.414.586,2,2,0,0,0,2,0Z" transform="translate(217 139)" fill="#244d4d"/>
    <path id="Vector-42" data-name="Vector" d="M2,0A2,2,0,1,0,3.414.586,2,2,0,0,0,2,0Z" transform="translate(217 155)" fill="#244d4d"/>
    <path id="Vector-43" data-name="Vector" d="M2,0A2,2,0,1,0,3.414.586,2,2,0,0,0,2,0Z" transform="translate(217 171)" fill="#244d4d"/>
    <path id="Vector-44" data-name="Vector" d="M2,0A2,2,0,1,0,3.414.586,2,2,0,0,0,2,0Z" transform="translate(217 187)" fill="#244d4d"/>
    <path id="Vector-45" data-name="Vector" d="M2,0A2,2,0,1,0,3.414.586,2,2,0,0,0,2,0Z" transform="translate(217 203)" fill="#244d4d"/>
    <path id="Vector-46" data-name="Vector" d="M2,0A2,2,0,1,0,3.414.586,2,2,0,0,0,2,0Z" transform="translate(217 219)" fill="#244d4d"/>
    <path id="Vector-47" data-name="Vector" d="M2,0A2,2,0,1,0,3.414.586,2,2,0,0,0,2,0Z" transform="translate(217 235)" fill="#244d4d"/>
    <path id="Vector-48" data-name="Vector" d="M2,0A2,2,0,1,0,3.414.586,2,2,0,0,0,2,0Z" transform="translate(217 251)" fill="#244d4d"/>
    <path id="Vector-49" data-name="Vector" d="M2,0A2,2,0,1,0,3.414.586,2,2,0,0,0,2,0Z" transform="translate(233 139)" fill="#244d4d"/>
    <path id="Vector-50" data-name="Vector" d="M2,0A2,2,0,1,0,3.414.586,2,2,0,0,0,2,0Z" transform="translate(233 155)" fill="#244d4d"/>
    <path id="Vector-51" data-name="Vector" d="M2,0A2,2,0,1,0,3.414.586,2,2,0,0,0,2,0Z" transform="translate(233 171)" fill="#244d4d"/>
    <path id="Vector-52" data-name="Vector" d="M2,0A2,2,0,1,0,3.414.586,2,2,0,0,0,2,0Z" transform="translate(233 187)" fill="#244d4d"/>
    <path id="Vector-53" data-name="Vector" d="M2,0A2,2,0,1,0,3.414.586,2,2,0,0,0,2,0Z" transform="translate(233 203)" fill="#244d4d"/>
    <path id="Vector-54" data-name="Vector" d="M2,0A2,2,0,1,0,3.414.586,2,2,0,0,0,2,0Z" transform="translate(233 219)" fill="#244d4d"/>
    <path id="Vector-55" data-name="Vector" d="M2,0A2,2,0,1,0,3.414.586,2,2,0,0,0,2,0Z" transform="translate(233 235)" fill="#244d4d"/>
    <path id="Vector-56" data-name="Vector" d="M2,0A2,2,0,1,0,3.414.586,2,2,0,0,0,2,0Z" transform="translate(233 251)" fill="#244d4d"/>
  </g>
</svg>
